<?xml version="1.0" encoding="UTF-8"?>
<svg width="236px" height="240px" viewBox="0 0 236 240" version="1.1" xmlns="http://www.w3.org/2000/svg" xmlns:xlink="http://www.w3.org/1999/xlink">
    <title>Group 5</title>
    <defs>
        <path d="M25.1110267,61.5647528 L1.70103634,48.0493725 C0.648433392,47.4416691 4.04010944e-14,46.3185655 3.58113547e-14,45.1031329 L3.58113547e-14,17.4432752 C3.52184179e-14,16.2278427 0.648433392,15.104739 1.70103634,14.4970357 L25.1110267,0.981655311 C26.1632485,0.374172024 27.4595769,0.373961229 28.5119962,0.981102283 L51.9408576,14.4972203 C52.9940005,15.1047788 53.6428522,16.228185 53.6428522,17.4440129 L53.6428522,45.1023953 C53.6428522,46.3182231 52.9940005,47.4416293 51.9408576,48.0491878 L28.5119962,61.5653059 C27.4595769,62.1724469 26.1632485,62.1722361 25.1110267,61.5647528 Z" id="path-1"></path>
        <filter x="-12.7%" y="-22.0%" width="125.4%" height="144.0%" filterUnits="objectBoundingBox" id="filter-3">
            <feGaussianBlur stdDeviation="2.26800014" in="SourceGraphic"></feGaussianBlur>
        </filter>
        <filter x="-25.4%" y="-14.7%" width="150.8%" height="129.3%" filterUnits="objectBoundingBox" id="filter-4">
            <feGaussianBlur stdDeviation="2.26800014" in="SourceGraphic"></feGaussianBlur>
        </filter>
    </defs>
    <g id="Home" stroke="none" stroke-width="1" fill="none" fill-rule="evenodd">
        <g id="001---Home-Alternate" transform="translate(-445.000000, -1248.000000)">
            <g id="Group-8" transform="translate(409.000000, 1248.000000)">
                <g id="Group-5" transform="translate(37.000000, 0.000000)">
                    <g id="data" transform="translate(0.000000, 4.500000)">
                        <polyline id="Path" stroke="#F93822" stroke-width="0.780000031" stroke-linecap="round" points="232.666209 96.4548038 207.781088 100.843084 208.827848 108.795964 209.178848 116.811245 183.909967 116.811245 183.655687 122.622245 208.827848 124.824965 234.000009 127.027685"></polyline>
                        <polyline id="Path" stroke="#F93822" stroke-width="0.780000031" stroke-linecap="round" points="218.741649 58.1989223 196.857968 70.8333628 174.975847 83.4678033 171.849607 78.5600431 192.547688 64.0676425"></polyline>
                        <polyline id="Path" stroke="#F93822" stroke-width="0.780000031" stroke-linecap="round" points="175.835407 15.2926806 163.200966 37.1748015 150.566526 59.0584823 155.472726 62.1847225 160.088766 65.7259226 164.377207 69.6571228 168.306847 73.9455629 148.951926 90.1882836"></polyline>
                        <polyline id="Path" stroke="#F93822" stroke-width="0.780000031" stroke-linecap="round" points="137.579525 1.36812005 133.191245 26.253241 128.802965 51.138362 123.035645 50.378642 125.238365 25.204921"></polyline>
                        <line x1="86.8826435" y1="3.58176014" x2="93.4237237" y2="27.9895211" id="Path" stroke="#F93822" stroke-width="0.780000031" stroke-linecap="round"></line>
                        <polyline id="Path" stroke="#F93822" stroke-width="0.780000031" stroke-linecap="round" points="34.3340414 33.9206413 52.2007221 51.7888821 58.1162423 46.3694418 64.4794826 41.4866416 78.9734431 62.1847225 83.8796433 59.0584823 89.0401235 56.3721622 99.719884 79.2729632"></polyline>
                        <polyline id="Path" stroke="#F93822" stroke-width="0.780000031" stroke-linecap="round" points="7.06992028 76.717683 30.8131212 85.3600834 33.8847613 77.9485231 37.5882015 70.8333628 59.4703224 83.4678033 62.5965625 78.5600431 66.1393226 73.9455629 85.4942434 90.1882836"></polyline>
                        <polyline id="Path" stroke="#F93822" stroke-width="0.780000031" stroke-linecap="round" points="75.962643 120.421085 50.790482 122.622245 25.618321 124.824965 25.267321 116.811245 25.618321 108.795964 50.790482 110.998684 51.550202 105.229804 52.8091221 99.551404 77.2168831 106.090924"></polyline>
                        <polyline id="Path" stroke="#F93822" stroke-width="0.780000031" stroke-linecap="round" points="1.78152007 137.166125 26.6650811 132.779405 28.4013611 140.610606 3.99516016 147.150126"></polyline>
                        <polyline id="Path" stroke="#F93822" stroke-width="0.780000031" stroke-linecap="round" points="10.9824004 166.350607 33.8847613 155.672406 56.7855623 144.992646 59.4703224 150.154686 37.5882015 162.787566"></polyline>
                        <polyline id="Path" stroke="#F93822" stroke-width="0.780000031" stroke-linecap="round" points="41.8735217 206.607968 58.1162423 187.253047 74.357403 167.895007 78.9734431 171.436207 64.4794826 192.135848 49.987082 212.833928"></polyline>
                        <polyline id="Path" stroke="#F93822" stroke-width="0.780000031" stroke-linecap="round" points="96.8666438 232.252809 101.254924 207.369248 93.4237237 205.632968 85.7734834 203.219648 94.4158838 179.474887 89.0401235 177.248767"></polyline>
                        <polyline id="Path" stroke="#F93822" stroke-width="0.780000031" stroke-linecap="round" points="147.563526 230.039169 141.022446 205.632968 133.191245 207.369248 125.238365 208.416008 123.035645 183.243847 117.223085 183.496567 111.410524 183.243847 113.613245 158.070126"></polyline>
                        <polyline id="Path" stroke="#F93822" stroke-width="0.780000031" stroke-linecap="round" points="156.085806 200.149568 145.406046 177.248767 134.727845 154.347966"></polyline>
                        <polyline id="Path" stroke="#F93822" stroke-width="0.780000031" stroke-linecap="round" points="184.459087 212.833928 169.966687 192.135848 155.472726 171.436207"></polyline>
                        <polyline id="Path" stroke="#F93822" stroke-width="0.780000031" stroke-linecap="round" points="223.463769 166.350607 200.562968 155.672406 177.662167 144.992646 174.975847 150.154686 171.849607 155.060886 168.306847 159.675366 164.377207 163.965367 146.510526 146.098686"></polyline>
                        <g id="Group" opacity="0.25" stroke-linecap="round" stroke-width="0.780000031">
                            <polyline id="Path" stroke="#00BFFF" points="207.021368 41.4616816 187.664887 57.7028423 182.245447 51.7888821 164.377207 69.6571228 146.510526 87.5238035"></polyline>
                            <polyline id="Path" stroke="#637F90" points="137.579525 232.252809 133.191245 207.369248 128.802965 182.484127 134.482925 181.225207 141.022446 205.632968"></polyline>
                            <line x1="158.641086" y1="116.811245" x2="183.909967" y2="116.811245" id="Path" stroke="#637F90"></line>
                            <polyline id="Path" stroke="#637F90" points="234.000009 106.593244 208.827848 108.795964 183.655687 110.998684 182.895967 105.229804 158.012406 109.618084"></polyline>
                            <polyline id="Path" stroke="#637F90" points="213.247328 49.575242 192.547688 64.0676425 196.857968 70.8333628 200.562968 77.9485231 177.662167 88.6282835 179.888287 94.0024837 181.637047 99.551404 157.229286 106.090924"></polyline>
                            <polyline id="Path" stroke="#637F90" points="230.452569 86.4708034 206.044808 93.0118837 203.633048 85.3600834 227.376249 76.717683"></polyline>
                            <polyline id="Path" stroke="#637F90" points="203.633048 85.3600834 179.888287 94.0024837 156.143526 102.644884"></polyline>
                            <line x1="177.662167" y1="88.6282835" x2="154.761366" y2="99.3064839" id="Path" stroke="#637F90"></line>
                            <line x1="171.849607" y1="78.5600431" x2="151.151526" y2="93.0540037" id="Path" stroke="#637F90"></line>
                            <line x1="160.088766" y1="65.7259226" x2="143.846046" y2="85.0824034" id="Path" stroke="#637F90"></line>
                            <polyline id="Path" stroke="#637F90" points="184.459087 20.7870008 169.966687 41.4866416 155.472726 62.1847225"></polyline>
                            <line x1="163.200966" y1="37.1748015" x2="169.966687" y2="41.4866416" id="Path" stroke="#637F90"></line>
                            <line x1="150.566526" y1="59.0584823" x2="137.932085" y2="80.9406032" id="Path" stroke="#637F90"></line>
                            <polyline id="Path" stroke="#637F90" points="127.439525 0.0343200014 125.238365 25.204921 133.191245 26.253241 141.022446 27.9895211 134.482925 52.3972821 140.031846 54.1460422 145.406046 56.3721622 134.727845 79.2729632"></polyline>
                            <polyline id="Path" stroke="#637F90" points="166.764007 10.5705604 156.085806 33.4713613 148.674246 30.4012812 157.316646 6.65652026"></polyline>
                            <polyline id="Path" stroke="#637F90" points="148.674246 30.4012812 140.031846 54.1460422 131.389445 77.8908031"></polyline>
                            <line x1="134.482925" y1="52.3972821" x2="127.943405" y2="76.8034831" id="Path" stroke="#637F90"></line>
                            <line x1="123.035645" y1="50.378642" x2="120.832925" y2="75.550803" id="Path" stroke="#637F90"></line>
                            <polyline id="Path" stroke="#00BFFF" points="77.1310831 6.65652026 85.7734834 30.4012812 93.4237237 27.9895211 101.254924 26.253241 105.643204 51.138362 111.410524 50.378642 117.223085 50.124362 117.223085 75.393243"></polyline>
                            <polyline id="Path" stroke="#637F90" points="107.006644 0.0343200014 109.209364 25.204921 111.410524 50.378642 113.613245 75.550803"></polyline>
                            <line x1="105.643204" y1="51.138362" x2="110.031484" y2="76.021923" id="Path" stroke="#637F90"></line>
                            <polyline id="Path" stroke="#637F90" points="85.7734834 30.4012812 94.4158838 54.1460422 103.058284 77.8908031"></polyline>
                            <polyline id="Path" stroke="#637F90" points="67.6821627 10.5705604 78.3619231 33.4713613 71.2452028 37.1748015 58.6107623 15.2926806"></polyline>
                            <polyline id="Path" stroke="#637F90" points="71.2452028 37.1748015 83.8796433 59.0584823 96.5140838 80.9406032"></polyline>
                            <line x1="41.8735217" y1="27.0129611" x2="58.1146823" y2="46.3694418" id="Path" stroke="#637F90"></line>
                            <line x1="78.9734431" y1="62.1847225" x2="93.4674037" y2="82.8828033" id="Path" stroke="#637F90"></line>
                            <polyline id="Path" stroke="#637F90" points="52.2007221 51.7888821 70.0689628 69.6571228 87.9356435 87.5238035"></polyline>
                            <polyline id="Path" stroke="#637F90" points="21.2004008 49.575242 41.8984817 64.0676425 62.5965625 78.5600431 83.2946433 93.0540037"></polyline>
                            <line x1="59.4703224" y1="83.4678033" x2="81.3540032" y2="96.1022438" id="Path" stroke="#637F90"></line>
                            <polyline id="Path" stroke="#637F90" points="10.9824004 67.2703227 33.8847613 77.9485231 56.7855623 88.6282835 54.5578822 94.0024837 30.8131212 85.3600834"></polyline>
                            <line x1="54.5578822" y1="94.0024837" x2="78.3026431" y2="102.644884" id="Path" stroke="#637F90"></line>
                            <polyline id="Path" stroke="#00BFFF" points="1.78152007 96.4548038 26.6650811 100.843084 51.550202 105.229804 76.433763 109.618084"></polyline>
                            <polyline id="Path" stroke="#637F90" points="0 116.811245 25.267321 116.811245 50.536202 116.811245 50.790482 122.622245"></polyline>
                            <line x1="50.790482" y1="110.998684" x2="75.962643" y2="113.201404" id="Path" stroke="#637F90"></line>
                            <polyline id="Path" stroke="#637F90" points="15.7045206 175.422007 37.5882015 162.787566 33.8847613 155.672406 30.8131212 148.260846 54.5578822 139.618446 52.8091221 134.071085 51.550202 128.391125 76.433763 124.002845"></polyline>
                            <polyline id="Path" stroke="#00BFFF" points="28.4013611 140.610606 52.8091221 134.071085 77.2168831 127.530005"></polyline>
                            <line x1="54.5578822" y1="139.618446" x2="78.3026431" y2="130.976045" id="Path" stroke="#637F90"></line>
                            <line x1="59.4703224" y1="150.154686" x2="81.3540032" y2="137.520245" id="Path" stroke="#637F90"></line>
                            <polyline id="Path" stroke="#637F90" points="27.4248011 192.160808 46.7812819 175.918087 66.1393226 159.675366 85.4942434 143.434206"></polyline>
                            <polyline id="Path" stroke="#637F90" points="21.2004008 184.047247 41.8984817 169.553287 46.7812819 175.918087"></polyline>
                            <polyline id="Path" stroke="#637F90" points="74.357403 167.895007 70.0689628 163.965367 66.1393226 159.675366"></polyline>
                            <line x1="70.0689628" y1="163.965367" x2="87.9356435" y2="146.098686" id="Path" stroke="#637F90"></line>
                            <line x1="64.4794826" y1="192.135848" x2="58.1146823" y2="187.253047" id="Path" stroke="#637F90"></line>
                            <line x1="78.9734431" y1="171.436207" x2="93.4674037" y2="150.738126" id="Path" stroke="#637F90"></line>
                            <polyline id="Path" stroke="#00BFFF" points="67.6821627 223.051929 78.3619231 200.149568 89.0401235 177.248767 99.719884 154.347966"></polyline>
                            <polyline id="Path" stroke="#00BFFF" points="58.6107623 218.329809 71.2452028 196.446128 78.3619231 200.149568"></polyline>
                            <line x1="94.4158838" y1="179.474887" x2="103.058284" y2="155.731686" id="Path" stroke="#637F90"></line>
                            <polyline id="Path" stroke="#637F90" points="86.8826435 230.039169 93.4237237 205.632968 99.963244 181.225207 105.643204 182.484127 101.254924 207.369248"></polyline>
                            <line x1="105.643204" y1="182.484127" x2="110.031484" y2="157.599006" id="Path" stroke="#637F90"></line>
                            <polyline id="Path" stroke="#637F90" points="107.006644 233.588169 109.209364 208.416008 117.223085 208.765448 117.223085 234.034329"></polyline>
                            <polyline id="Path" stroke="#00BFFF" points="117.223085 208.765448 117.223085 183.496567 117.223085 158.229246"></polyline>
                            <line x1="123.035645" y1="183.243847" x2="120.832925" y2="158.071686" id="Path" stroke="#637F90"></line>
                            <line x1="134.482925" y1="181.225207" x2="127.943405" y2="156.817446" id="Path" stroke="#637F90"></line>
                            <polyline id="Path" stroke="#637F90" points="157.316646 226.964409 148.674246 203.219648 156.085806 200.149568 166.764007 223.051929"></polyline>
                            <polyline id="Path" stroke="#637F90" points="192.572648 206.607968 176.331487 187.253047 160.088766 167.895007 155.472726 171.436207 150.566526 174.562447 145.406046 177.248767 140.031846 179.474887 131.389445 155.731686"></polyline>
                            <line x1="150.566526" y1="174.564007" x2="137.932085" y2="152.680326" id="Path" stroke="#637F90"></line>
                            <line x1="176.331487" y1="187.253047" x2="169.966687" y2="192.135848" id="Path" stroke="#637F90"></line>
                            <line x1="160.088766" y1="167.895007" x2="143.846046" y2="148.538526" id="Path" stroke="#637F90"></line>
                            <polyline id="Path" stroke="#637F90" points="207.021368 192.160808 187.664887 175.918087 168.306847 159.675366 148.951926 143.434206"></polyline>
                            <polyline id="Path" stroke="#637F90" points="218.741649 175.422007 196.857968 162.787566 174.975847 150.154686"></polyline>
                            <line x1="171.849607" y1="155.060886" x2="151.151526" y2="140.566926" id="Path" stroke="#637F90"></line>
                            <line x1="200.562968" y1="155.672406" x2="196.857968" y2="162.787566" id="Path" stroke="#637F90"></line>
                            <line x1="177.662167" y1="144.992646" x2="154.761366" y2="134.314445" id="Path" stroke="#637F90"></line>
                            <polyline id="Path" stroke="#637F90" points="227.376249 156.903246 203.633048 148.260846 206.044808 140.610606 230.452569 147.150126"></polyline>
                            <polyline id="Path" stroke="#00BFFF" points="208.827848 124.824965 207.781088 132.779405 182.895967 128.391125 158.012406 124.002845"></polyline>
                            <polyline id="Path" stroke="#637F90" points="206.044808 140.610606 181.637047 134.071085 182.895967 128.391125"></polyline>
                            <circle id="Oval" stroke="#637F90" cx="117.223085" cy="116.811245" r="41.4180016"></circle>
                        </g>
                        <g id="Cube" transform="translate(90.900004, 85.500003)">
                            <mask id="mask-2" fill="white">
                                <use xlink:href="#path-1"></use>
                            </mask>
                            <use id="Mask" fill="#B6C1C7" xlink:href="#path-1"></use>
                            <polygon id="Path-3" fill="#000000" opacity="0.200000003" filter="url(#filter-3)" mask="url(#mask-2)" points="0.000309582032 15.4791016 26.8214261 30.9582032 53.6428522 15.4791016 26.8215809 0"></polygon>
                            <polygon id="Path-4" fill="#000000" opacity="0.400000006" filter="url(#filter-4)" mask="url(#mask-2)" points="7.16227094e-14 15.4791016 26.8098039 30.9582032 26.8098039 61.9164081 0.000309582032 46.4373065"></polygon>
                        </g>
                    </g>
                    <g id="Group-14" transform="translate(2.700000, 0.000000)" fill="#F93822">
                        <circle id="Oval" cx="207.000008" cy="16.2000006" r="1"></circle>
                        <circle id="Oval" cx="8.10000032" cy="60.3000024" r="1"></circle>
                        <circle id="Oval" cx="217.800009" cy="211.500008" r="1"></circle>
                        <circle id="Oval" cx="31.5000013" cy="14.4000006" r="1"></circle>
                        <circle id="Oval" cx="230.400009" cy="121.500005" r="1"></circle>
                        <circle id="Oval" cx="13.5000005" cy="111.600004" r="1"></circle>
                        <circle id="Oval" cx="52.2000021" cy="232.200009" r="1"></circle>
                        <circle id="Oval" cx="175.500007" cy="47.7000019" r="1"></circle>
                        <circle id="Oval" cx="41.4000016" cy="200.700008" r="1"></circle>
                        <circle id="Oval" cx="149.400006" cy="0.900000036" r="1"></circle>
                        <circle id="Oval" cx="0.900000036" cy="205.200008" r="1"></circle>
                        <circle id="Oval" cx="99.900004" cy="18.0000007" r="1"></circle>
                    </g>
                    <g id="Group-15" opacity="0.25" transform="translate(2.700000, 0.000000)" fill="#637F90">
                        <circle id="Oval" transform="translate(24.300001, 216.900009) scale(-1, -1) translate(-24.300001, -216.900009) " cx="24.300001" cy="216.900009" r="1"></circle>
                        <circle id="Oval" transform="translate(223.200009, 172.800007) scale(-1, -1) translate(-223.200009, -172.800007) " cx="223.200009" cy="172.800007" r="1"></circle>
                        <circle id="Oval" transform="translate(13.500001, 21.600001) scale(-1, -1) translate(-13.500001, -21.600001) " cx="13.5000005" cy="21.6000009" r="1"></circle>
                        <circle id="Oval" transform="translate(199.800008, 218.700009) scale(-1, -1) translate(-199.800008, -218.700009) " cx="199.800008" cy="218.700009" r="1"></circle>
                        <circle id="Oval" transform="translate(0.900000, 111.600004) scale(-1, -1) translate(-0.900000, -111.600004) " cx="0.900000036" cy="111.600004" r="1"></circle>
                        <circle id="Oval" transform="translate(217.800009, 121.500005) scale(-1, -1) translate(-217.800009, -121.500005) " cx="217.800009" cy="121.500005" r="1"></circle>
                        <circle id="Oval" transform="translate(179.100007, 0.900000) scale(-1, -1) translate(-179.100007, -0.900000) " cx="179.100007" cy="0.900000036" r="1"></circle>
                        <circle id="Oval" transform="translate(55.800002, 185.400007) scale(-1, -1) translate(-55.800002, -185.400007) " cx="55.8000022" cy="185.400007" r="1"></circle>
                        <circle id="Oval" transform="translate(189.900008, 32.400001) scale(-1, -1) translate(-189.900008, -32.400001) " cx="189.900008" cy="32.4000013" r="1"></circle>
                        <circle id="Oval" transform="translate(81.900003, 232.200009) scale(-1, -1) translate(-81.900003, -232.200009) " cx="81.9000033" cy="232.200009" r="1"></circle>
                        <circle id="Oval" transform="translate(230.400009, 27.900001) scale(-1, -1) translate(-230.400009, -27.900001) " cx="230.400009" cy="27.9000011" r="1"></circle>
                        <circle id="Oval" transform="translate(131.400005, 215.100009) scale(-1, -1) translate(-131.400005, -215.100009) " cx="131.400005" cy="215.100009" r="1"></circle>
                    </g>
                </g>
            </g>
        </g>
    </g>
</svg>