<svg id="Logo_Default" data-name="Logo/Default" xmlns="http://www.w3.org/2000/svg" width="165.07" height="42" viewBox="0 0 165.07 42">
  <g id="Logo_Default-2" data-name="Logo/Default" transform="translate(0 0)">
    <path id="Dot" d="M0,1.731A1.751,1.751,0,1,1,.5,3,1.761,1.761,0,0,1,0,1.731" transform="translate(143.352 25.698)" fill="#f93822"/>
    <path id="Text" d="M38.155,20.388h-.008l.44-2.192a18.019,18.019,0,0,0,3.662.484,2.749,2.749,0,0,0,2.145-.652,3.463,3.463,0,0,0,.622-2.421v-1.28h-.046a3.9,3.9,0,0,1-3.6,1.913,5.022,5.022,0,0,1-3.648-1.5,5.836,5.836,0,0,1-1.537-4.168A5.837,5.837,0,0,1,37.728,6.4a5.02,5.02,0,0,1,3.646-1.505,3.908,3.908,0,0,1,3.6,1.915h.046V5.258h2.26V15.911c-.053,1.944-.553,3.268-1.528,4.046a5.357,5.357,0,0,1-3.5.915A23.477,23.477,0,0,1,38.155,20.388Zm.433-9.8a3.277,3.277,0,1,0,6.544,0,3.277,3.277,0,1,0-6.544,0ZM82.8,16.257A5.485,5.485,0,0,1,78.751,14.7a5.71,5.71,0,0,1-1.506-4.088,6.713,6.713,0,0,1,.37-2.252,5.081,5.081,0,0,1,5.068-3.443A4.83,4.83,0,0,1,86.45,6.46a6.143,6.143,0,0,1,1.329,4.124v.369H79.525a3.115,3.115,0,0,0,3.227,3.137,3.824,3.824,0,0,0,3.087-1.626l1.551,1.552a5.576,5.576,0,0,1-4.469,2.242Zm-3.166-6.94h5.7a2.469,2.469,0,0,0-2.79-2.331A2.72,2.72,0,0,0,79.632,9.317Zm-49.805,6.94A5.489,5.489,0,0,1,25.778,14.7a5.708,5.708,0,0,1-1.507-4.088,6.7,6.7,0,0,1,.371-2.252,5.081,5.081,0,0,1,5.071-3.443A4.827,4.827,0,0,1,33.477,6.46a6.146,6.146,0,0,1,1.328,4.124v.369H26.554a3.115,3.115,0,0,0,3.227,3.137,3.825,3.825,0,0,0,3.087-1.626l1.551,1.552a5.577,5.577,0,0,1-4.469,2.242Zm-3.158-6.94h5.695a2.469,2.469,0,0,0-2.79-2.331A2.706,2.706,0,0,0,26.669,9.317Zm69.309,5.436a5.836,5.836,0,0,1-1.537-4.169,5.834,5.834,0,0,1,1.538-4.168,5.022,5.022,0,0,1,3.647-1.5,3.87,3.87,0,0,1,3.583,1.913h.046V5.255h2.26V15.911h-2.26v-1.57h-.046a3.886,3.886,0,0,1-3.583,1.915A5.022,5.022,0,0,1,95.978,14.753Zm.861-4.169a3.277,3.277,0,1,0,6.544,0,3.277,3.277,0,1,0-6.544,0ZM58.5,14.753a5.835,5.835,0,0,1-1.537-4.169A5.833,5.833,0,0,1,58.5,6.416a5.022,5.022,0,0,1,3.646-1.5,3.911,3.911,0,0,1,3.6,1.913h.046V5.255h2.26V15.911h-2.26V14.344H65.74a3.9,3.9,0,0,1-3.6,1.913A5.022,5.022,0,0,1,58.5,14.753Zm.861-4.169a3.277,3.277,0,1,0,6.544,0,3.277,3.277,0,1,0-6.544,0Zm15.19,5.35a2.546,2.546,0,0,1-2.882-2.743V7.171H69.774V5.255h1.891V1.265h2.26v3.99H76.09V7.171H73.92v5.583c0,.761.322,1.106,1.106,1.106h.558v2.075Zm-52.972,0a2.547,2.547,0,0,1-2.882-2.743V7.171H16.8V5.255h1.891V1.265h2.258v3.99h2.168V7.171h-2.18v5.583c0,.761.325,1.106,1.108,1.106H22.6v2.075ZM5.393,15.921V5.255h2.26V6.871H7.7a3.755,3.755,0,0,1,3.481-1.959c2.28,0,4.01,1.222,4.01,4.451v6.548H12.93V9.765c0-1.823-.922-2.584-2.444-2.584-1.659,0-2.833.994-2.833,3.644v5.1Zm103.017-.01V5.255h2.26V15.911Zm-108.159,0V5.258h2.26V15.911ZM50.044,15.9V5.258H52.3V7.585h.049a3.556,3.556,0,0,1,3.527-2.65h.159v2.65h-.343c-2.214,0-3.391,1.061-3.391,3.586V15.9ZM108.154,2.766V0h2.767V2.766ZM0,2.766V0H2.764V2.766Z" transform="translate(53.789 12.899)" fill="#fff"/>
    <path id="Mark_Dot" data-name="Mark Dot" d="M5.8,2.79A2.9,2.9,0,1,0,2.987,5.807,2.87,2.87,0,0,0,5.8,2.79Z" transform="translate(31.702 21.005)" fill="#f93822"/>
    <path id="Mark" d="M19.623,41.384a2.4,2.4,0,0,1-1.177-2.146V31.22a2.4,2.4,0,1,1,4.8,0v8.018a2.4,2.4,0,0,1-3.623,2.146Zm14.418-4.094-14.9-14.9a2.281,2.281,0,0,1,3.225-3.227l14.9,14.9a2.281,2.281,0,0,1-3.225,3.227ZM7.18,36.28a2.4,2.4,0,0,1-1.018-4.122l5.664-5.67a2.4,2.4,0,1,1,3.386,3.4l-5.664,5.67a2.4,2.4,0,0,1-2.368.727ZM.335,22.083a2.4,2.4,0,0,1,2.144-3.625H10.49a2.4,2.4,0,0,1,0,4.8H2.4A2.4,2.4,0,0,1,.335,22.083ZM39.024,18.5H28.492a2.211,2.211,0,0,1-.343-.028h-.028a2.127,2.127,0,0,1-.338-.09c-.038-.01-.074-.039-.11-.039a2.65,2.65,0,0,1-.256-.12c-.031-.018-.066-.028-.1-.049a2.266,2.266,0,0,1-.194-.148l-.023-.018a2.16,2.16,0,0,1-.471-2.817l5.477-9.163a2.16,2.16,0,1,1,3.665,2.287l-3.5,5.852h6.739l.013.013A2.161,2.161,0,1,1,39.1,18.5Zm-27.2-3.268L6.162,9.554A2.4,2.4,0,0,1,9.548,6.166l5.672,5.667a2.4,2.4,0,1,1-3.394,3.4ZM18.447,10.5V2.481a2.4,2.4,0,1,1,4.8,0V10.5a2.4,2.4,0,1,1-4.8,0Z" transform="translate(0 0)" fill="#00bfff"/>
  </g>
</svg>
